<?xml version="1.0" encoding="UTF-8" standalone="no"?>
<!DOCTYPE svg PUBLIC "-//W3C//DTD SVG 1.1//EN" "http://www.w3.org/Graphics/SVG/1.1/DTD/svg11.dtd">
<svg xmlns="http://www.w3.org/2000/svg" version="1.1" viewBox="0.00 0.00 121.00 119.00">
<g stroke-width="2.00" fill="none" stroke-linecap="butt">
<path stroke="#9dd4f0" vector-effect="non-scaling-stroke" d="
  M 41.62 38.74
  L 35.00 34.09
  A 0.15 0.15 0.0 0 0 34.80 34.30
  L 39.50 40.76"
/>
<path stroke="#9dd4f0" vector-effect="non-scaling-stroke" d="
  M 32.12 57.08
  L 14.01 59.34
  A 0.17 0.16 44.0 0 0 14.02 59.67
  L 32.26 61.86"
/>
<path stroke="#9dd4f0" vector-effect="non-scaling-stroke" d="
  M 39.56 78.09
  L 34.19 85.44
  A 0.12 0.12 0.0 0 0 34.36 85.61
  L 41.84 80.26"
/>
<path stroke="#9dd4f0" vector-effect="non-scaling-stroke" d="
  M 58.27 87.05
  L 60.56 106.18
  A 0.09 0.09 0.0 0 0 60.73 106.18
  L 63.04 87.00"
/>
<path stroke="#9dd4f0" vector-effect="non-scaling-stroke" d="
  M 79.25 80.01
  L 86.55 85.15
  A 0.22 0.21 -0.3 0 0 86.85 84.85
  L 81.60 77.74"
/>
<path stroke="#9dd4f0" vector-effect="non-scaling-stroke" d="
  M 88.59 61.96
  L 105.92 59.81
  Q 108.52 59.49 105.92 59.17
  L 88.66 57.06"
/>
<path stroke="#9dd4f0" vector-effect="non-scaling-stroke" d="
  M 81.86 41.30
  L 86.57 34.79
  A 0.18 0.18 0.0 0 0 86.32 34.53
  L 79.72 39.11"
/>
<path stroke="#9dd4f0" vector-effect="non-scaling-stroke" d="
  M 63.12 31.76
  L 61.13 15.46
  Q 60.67 11.76 60.23 15.46
  L 58.29 31.76"
/>
<path stroke="#7fb8d7" vector-effect="non-scaling-stroke" d="
  M 64.26 67.54
  L 80.10 78.84
  A 0.18 0.18 0.0 0 0 80.35 78.58
  L 69.05 63.28
  A 0.25 0.25 0.0 0 1 69.22 62.88
  L 94.75 59.74
  A 0.22 0.21 -44.4 0 0 94.76 59.31
  L 69.72 56.25
  Q 69.14 56.18 69.49 55.71
  L 80.50 40.74
  A 0.17 0.17 0.0 0 0 80.26 40.50
  L 64.49 51.26
  Q 63.99 51.60 63.92 50.99
  L 60.88 25.76
  A 0.22 0.22 0.0 0 0 60.44 25.76
  L 57.47 50.95
  Q 57.39 51.65 56.81 51.24
  L 41.57 40.49
  A 0.18 0.18 0.0 0 0 41.32 40.75
  L 52.26 55.66
  A 0.29 0.29 0.0 0 1 52.06 56.12
  L 27.25 59.15
  Q 24.39 59.50 27.25 59.84
  L 51.95 62.84
  A 0.35 0.35 0.0 0 1 52.19 63.40
  L 41.19 78.46
  A 0.19 0.19 0.0 0 0 41.45 78.73
  L 56.81 67.75
  Q 57.40 67.32 57.49 68.05
  L 60.44 93.45
  A 0.17 0.17 0.0 0 0 60.77 93.45
  L 63.80 67.74
  Q 63.86 67.25 64.26 67.54"
/>
</g>
<path fill="#3caae0" d="
  M 0.00 53.12
  L 0.00 52.15
  L 17.43 49.19
  Q 17.90 49.11 18.02 48.66
  Q 19.62 42.80 22.75 37.59
  Q 23.05 37.08 22.70 36.60
  L 12.91 23.31
  Q 12.57 22.84 12.99 22.44
  L 22.63 13.10
  Q 23.04 12.71 23.50 13.02
  L 37.64 22.32
  Q 38.07 22.60 38.51 22.34
  Q 43.59 19.37 49.32 17.97
  A 0.93 0.93 0.0 0 0 50.02 17.23
  L 52.90 0.73
  Q 52.99 0.20 53.53 0.20
  L 67.41 0.20
  Q 67.89 0.20 67.97 0.67
  L 70.94 17.09
  A 0.70 0.70 0.0 0 0 71.38 17.62
  L 82.58 22.17
  Q 83.04 22.36 83.45 22.08
  L 97.22 12.73
  Q 97.71 12.40 98.13 12.82
  L 107.85 22.68
  Q 108.21 23.04 107.91 23.44
  L 98.19 36.94
  Q 97.94 37.29 98.16 37.66
  Q 101.20 42.79 102.73 48.56
  Q 102.84 48.98 103.27 49.06
  L 119.78 51.81
  Q 120.38 51.91 120.38 52.53
  L 120.37 66.09
  Q 120.37 66.57 119.89 66.66
  L 103.30 69.81
  Q 102.85 69.90 102.73 70.34
  Q 101.16 76.07 98.09 81.15
  Q 97.81 81.62 98.14 82.07
  L 108.27 95.68
  Q 108.56 96.07 108.21 96.41
  L 98.49 105.76
  Q 98.10 106.13 97.66 105.83
  L 83.58 96.38
  A 1.03 1.02 46.9 0 0 82.48 96.34
  Q 77.30 99.33 71.50 100.84
  Q 70.97 100.97 70.88 101.51
  L 68.11 117.82
  Q 68.01 118.40 67.43 118.40
  L 53.51 118.40
  Q 52.85 118.40 52.74 117.76
  L 49.88 101.49
  Q 49.78 100.93 49.22 100.78
  Q 43.37 99.25 38.14 96.22
  Q 37.68 95.95 37.25 96.26
  L 23.41 105.89
  Q 23.03 106.16 22.69 105.83
  L 12.99 96.28
  Q 12.58 95.87 12.91 95.41
  L 22.61 81.82
  Q 22.91 81.40 22.64 80.95
  Q 19.53 75.77 18.03 69.91
  Q 17.88 69.35 17.31 69.27
  L 0.74 66.71
  Q 0.21 66.63 0.20 66.10
  L 0.00 53.12
  Z
  M 58.29 31.76
  Q 48.77 32.49 41.62 38.74
  L 35.00 34.09
  A 0.15 0.15 0.0 0 0 34.80 34.30
  L 39.50 40.76
  Q 33.18 47.61 32.12 57.08
  L 14.01 59.34
  A 0.17 0.16 44.0 0 0 14.02 59.67
  L 32.26 61.86
  Q 33.11 71.18 39.56 78.09
  L 34.19 85.44
  A 0.12 0.12 0.0 0 0 34.36 85.61
  L 41.84 80.26
  Q 48.88 86.23 58.27 87.05
  L 60.56 106.18
  A 0.09 0.09 0.0 0 0 60.73 106.18
  L 63.04 87.00
  Q 72.23 86.06 79.25 80.01
  L 86.55 85.15
  A 0.22 0.21 -0.3 0 0 86.85 84.85
  L 81.60 77.74
  Q 87.63 70.90 88.59 61.96
  L 105.92 59.81
  Q 108.52 59.49 105.92 59.17
  L 88.66 57.06
  Q 87.69 48.16 81.86 41.30
  L 86.57 34.79
  A 0.18 0.18 0.0 0 0 86.32 34.53
  L 79.72 39.11
  Q 72.66 32.85 63.12 31.76
  L 61.13 15.46
  Q 60.67 11.76 60.23 15.46
  L 58.29 31.76
  Z"
/>
<path fill="#fdfeff" d="
  M 63.12 31.76
  L 65.12 48.66
  Q 65.17 49.08 65.51 48.84
  L 79.72 39.11
  L 86.32 34.53
  A 0.18 0.18 0.0 0 1 86.57 34.79
  L 81.86 41.30
  L 72.10 54.58
  Q 71.80 54.99 72.31 55.05
  L 88.66 57.06
  L 105.92 59.17
  Q 108.52 59.49 105.92 59.81
  L 88.59 61.96
  L 72.00 64.01
  Q 71.48 64.07 71.79 64.49
  L 81.60 77.74
  L 86.85 84.85
  A 0.22 0.21 -0.3 0 1 86.55 85.15
  L 79.25 80.01
  L 65.51 70.26
  Q 65.03 69.92 64.96 70.50
  L 63.04 87.00
  L 60.73 106.18
  A 0.09 0.09 0.0 0 1 60.56 106.18
  L 58.27 87.05
  L 56.22 70.66
  Q 56.14 70.01 55.62 70.39
  L 41.84 80.26
  L 34.36 85.61
  A 0.12 0.12 0.0 0 1 34.19 85.44
  L 39.56 78.09
  L 49.46 64.57
  Q 49.82 64.09 49.22 64.01
  L 32.26 61.86
  L 14.02 59.67
  A 0.17 0.16 44.0 0 1 14.01 59.34
  L 32.12 57.08
  L 49.34 54.91
  Q 49.88 54.84 49.56 54.41
  L 39.50 40.76
  L 34.80 34.30
  A 0.15 0.15 0.0 0 1 35.00 34.09
  L 41.62 38.74
  L 55.72 48.67
  Q 56.20 49.01 56.27 48.43
  L 58.29 31.76
  L 60.23 15.46
  Q 60.67 11.76 61.13 15.46
  L 63.12 31.76
  Z
  M 64.26 67.54
  L 80.10 78.84
  A 0.18 0.18 0.0 0 0 80.35 78.58
  L 69.05 63.28
  A 0.25 0.25 0.0 0 1 69.22 62.88
  L 94.75 59.74
  A 0.22 0.21 -44.4 0 0 94.76 59.31
  L 69.72 56.25
  Q 69.14 56.18 69.49 55.71
  L 80.50 40.74
  A 0.17 0.17 0.0 0 0 80.26 40.50
  L 64.49 51.26
  Q 63.99 51.60 63.92 50.99
  L 60.88 25.76
  A 0.22 0.22 0.0 0 0 60.44 25.76
  L 57.47 50.95
  Q 57.39 51.65 56.81 51.24
  L 41.57 40.49
  A 0.18 0.18 0.0 0 0 41.32 40.75
  L 52.26 55.66
  A 0.29 0.29 0.0 0 1 52.06 56.12
  L 27.25 59.15
  Q 24.39 59.50 27.25 59.84
  L 51.95 62.84
  A 0.35 0.35 0.0 0 1 52.19 63.40
  L 41.19 78.46
  A 0.19 0.19 0.0 0 0 41.45 78.73
  L 56.81 67.75
  Q 57.40 67.32 57.49 68.05
  L 60.44 93.45
  A 0.17 0.17 0.0 0 0 60.77 93.45
  L 63.80 67.74
  Q 63.86 67.25 64.26 67.54
  Z"
/>
<path fill="#0071af" d="
  M 63.80 67.74
  L 60.77 93.45
  A 0.17 0.17 0.0 0 1 60.44 93.45
  L 57.49 68.05
  Q 57.40 67.32 56.81 67.75
  L 41.45 78.73
  A 0.19 0.19 0.0 0 1 41.19 78.46
  L 52.19 63.40
  A 0.35 0.35 0.0 0 0 51.95 62.84
  L 27.25 59.84
  Q 24.39 59.50 27.25 59.15
  L 52.06 56.12
  A 0.29 0.29 0.0 0 0 52.26 55.66
  L 41.32 40.75
  A 0.18 0.18 0.0 0 1 41.57 40.49
  L 56.81 51.24
  Q 57.39 51.65 57.47 50.95
  L 60.44 25.76
  A 0.22 0.22 0.0 0 1 60.88 25.76
  L 63.92 50.99
  Q 63.99 51.60 64.49 51.26
  L 80.26 40.50
  A 0.17 0.17 0.0 0 1 80.50 40.74
  L 69.49 55.71
  Q 69.14 56.18 69.72 56.25
  L 94.76 59.31
  A 0.22 0.21 -44.4 0 1 94.75 59.74
  L 69.22 62.88
  A 0.25 0.25 0.0 0 0 69.05 63.28
  L 80.35 78.58
  A 0.18 0.18 0.0 0 1 80.10 78.84
  L 64.26 67.54
  Q 63.86 67.25 63.80 67.74
  Z"
/>
</svg>
